<svg width="24" height="20" viewBox="0 0 24 20" fill="none" xmlns="http://www.w3.org/2000/svg">
<path d="M20.84 2.61012C20.3292 2.09912 19.7228 1.69376 19.0554 1.4172C18.3879 1.14064 17.6725 0.998291 16.95 0.998291C16.2275 0.998291 15.5121 1.14064 14.8446 1.4172C14.1772 1.69376 13.5708 2.09912 13.06 2.61012L12 3.67012L10.94 2.61012C9.9083 1.57842 8.50903 0.998826 7.05 0.998826C5.59096 0.998826 4.19169 1.57842 3.16 2.61012C2.1283 3.64181 1.54871 5.04108 1.54871 6.50012C1.54871 7.95915 2.1283 9.35842 3.16 10.3901L4.22 11.4501L12 19.2301L19.78 11.4501L20.84 10.3901C21.351 9.87936 21.7563 9.27293 22.0329 8.60547C22.3095 7.93801 22.4518 7.2226 22.4518 6.50012C22.4518 5.77763 22.3095 5.06222 22.0329 4.39476C21.7563 3.7273 21.351 3.12087 20.84 2.61012V2.61012Z" stroke="#B7B7CC" stroke-width="1.5" stroke-linecap="round" stroke-linejoin="round"/>
</svg>
