<svg width="188" height="40" viewBox="0 0 188 40" fill="none" xmlns="http://www.w3.org/2000/svg">
<path d="M55.6923 27.4402C60.0192 27.4402 63.0131 24.9505 63.0131 19.3816H55.43V21.8494H59.6914C59.6695 21.9804 59.6477 22.1115 59.604 22.2207C59.2106 23.7931 57.6591 24.7322 55.6923 24.7322C53.0699 24.7322 51.0376 22.4172 51.0376 19.731C51.0376 17.0448 53.0699 14.8172 55.6923 14.8172C57.0035 14.8172 58.2054 15.385 59.0577 16.3023L61.2648 14.4023C59.9536 12.9391 57.965 12 55.6923 12C51.3654 12 48 15.4506 48 19.731C48 23.9896 51.3654 27.4402 55.6923 27.4402Z" fill="white"/>
<path d="M69.8724 27.4402C72.7788 27.4402 75.3575 25.3436 75.3575 22.1333C75.3575 18.9011 72.7788 16.8046 69.8724 16.8046C66.9659 16.8046 64.3872 18.9011 64.3872 22.1333C64.3872 25.3436 66.9659 27.4402 69.8724 27.4402ZM69.8724 24.7758C68.4519 24.7758 67.2937 23.7057 67.2937 22.1333C67.2937 20.5391 68.4519 19.4689 69.8724 19.4689C71.2928 19.4689 72.451 20.5391 72.451 22.1333C72.451 23.7057 71.2928 24.7758 69.8724 24.7758Z" fill="white"/>
<path d="M85.654 27.2436H89.2161L85.3044 21.6965C87.8394 21.1724 88.9539 19.2506 88.9539 17.1103C88.9539 14.6425 87.4678 12.1966 84.0151 12.1966H78.0055V27.2436H81.043V21.8494H82.0701L85.654 27.2436ZM81.043 14.8828H83.7091C85.1296 14.8828 85.8944 15.9747 85.8944 17.1758C85.8944 18.377 85.1733 19.4034 83.4687 19.4034H81.043V14.8828Z" fill="white"/>
<path d="M101.089 21.9804C101.089 18.8575 98.707 16.8046 95.8005 16.8046C92.8722 16.8046 90.381 18.8575 90.381 22.1551C90.381 25.3 92.6755 27.4402 95.8005 27.4402C97.5925 27.4402 99.3844 26.7413 100.346 25.4528L98.6633 23.7712C98.0514 24.4919 97.0243 24.9069 95.9972 24.9069C94.6205 24.9069 93.6589 24.2517 93.353 23.0724H101.045C101.067 22.6138 101.089 22.2643 101.089 21.9804ZM93.353 21.2161C93.6589 19.8402 94.686 19.2942 95.8442 19.2942C97.1336 19.2942 98.1388 20.0149 98.2262 21.2161H93.353Z" fill="white"/>
<path d="M106.912 27.4402C109.01 27.4402 111.196 26.3919 111.196 24.2517C111.196 23.4218 110.89 21.8931 108.442 21.2379L106.759 20.8011C106.191 20.6483 105.754 20.408 105.754 19.9276C105.754 19.4034 106.279 19.0758 106.934 19.0758C107.612 19.0758 108.18 19.4471 108.18 20.1241H110.911C110.933 17.7218 108.748 16.8046 106.89 16.8046C104.53 16.8046 102.891 18.2678 102.891 19.8402C102.891 20.9103 103.241 22.3735 105.863 23.0724L107.218 23.4C107.983 23.5965 108.333 23.8149 108.333 24.2517C108.333 24.8413 107.699 25.1908 106.869 25.1908C105.863 25.1908 105.361 24.5574 105.361 23.9678H102.673C102.695 26.2172 104.771 27.4402 106.912 27.4402Z" fill="white"/>
<path d="M119.41 17.0667H117.247V13.3322H114.384V17.0667H112.527V19.2724H114.384V27.2436H117.247V19.2724H119.41V17.0667Z" fill="white"/>
<path d="M128.754 17.0667V18.2896C128.033 17.2632 126.656 16.8264 125.476 16.8264C122.854 16.8264 120.472 18.8575 120.472 22.1333C120.472 25.4092 122.854 27.4402 125.476 27.4402C126.612 27.4402 128.033 26.9816 128.754 25.977V27.2436H131.617V17.0667H128.754ZM126.022 24.7758C124.58 24.7758 123.378 23.6184 123.378 22.1333C123.378 20.6264 124.58 19.5126 126.022 19.5126C127.355 19.5126 128.667 20.5609 128.667 22.1333C128.667 23.6839 127.421 24.7758 126.022 24.7758Z" fill="white"/>
<path d="M141.478 17.0667V22.2862C141.478 24.1207 140.211 24.6666 139.183 24.6666C138.2 24.6666 137.239 23.9459 137.239 22.3517V17.0667H134.376V22.6574C134.354 25.7149 135.753 27.4839 138.419 27.4839C139.424 27.4839 141.041 26.9161 141.478 25.5839V27.2436H144.341V17.0667H141.478Z" fill="white"/>
<path d="M153.061 16.8046C151.793 16.8046 150.635 17.5253 150.067 19.2287V17.0667H147.226V27.2436H150.089V23.7494C150.089 20.8448 151.094 19.4908 152.558 19.4908C152.908 19.4908 153.411 19.5345 154.022 19.862L154.678 17.1322C154.219 16.8919 153.607 16.8046 153.061 16.8046Z" fill="white"/>
<path d="M163.646 17.0667V18.2896C162.925 17.2632 161.548 16.8264 160.368 16.8264C157.746 16.8264 155.364 18.8575 155.364 22.1333C155.364 25.4092 157.746 27.4402 160.368 27.4402C161.505 27.4402 162.925 26.9816 163.646 25.977V27.2436H166.509V17.0667H163.646ZM160.915 24.7758C159.472 24.7758 158.27 23.6184 158.27 22.1333C158.27 20.6264 159.472 19.5126 160.915 19.5126C162.248 19.5126 163.559 20.5609 163.559 22.1333C163.559 23.6839 162.313 24.7758 160.915 24.7758Z" fill="white"/>
<path d="M175.321 16.8046C174.316 16.8046 172.699 17.3942 172.262 18.7701V17.0667H169.399V27.2436H172.262V22.0241C172.262 20.1678 173.53 19.6218 174.557 19.6218C175.54 19.6218 176.502 20.3425 176.502 21.9586V27.2436H179.364V21.6528C179.386 18.5954 177.988 16.8046 175.321 16.8046Z" fill="white"/>
<path d="M188 17.0667H185.837V13.3322H182.974V17.0667H181.116V19.2724H182.974V27.2436H185.837V19.2724H188V17.0667Z" fill="white"/>
<path fill-rule="evenodd" clip-rule="evenodd" d="M20.3636 10.5718C17.8418 10.5718 15.457 10.169 13.6487 9.43754C11.5721 8.59762 10.4283 7.37305 10.4284 5.9893C10.4284 4.60565 11.5721 3.38107 13.6488 2.54115C14.9426 2.0179 16.5323 1.66392 18.2554 1.50418C17.9784 1.13748 18.004 0.609832 18.3337 0.273902C18.6922 -0.0913007 19.2733 -0.0913007 19.6318 0.273902L21.0125 1.68094C21.3709 2.04614 21.3709 2.63832 21.0125 3.00352L19.6317 4.41047C19.4525 4.59311 19.2175 4.68439 18.9827 4.68439C18.7478 4.68439 18.5129 4.59311 18.3337 4.41047C18.0642 4.13579 17.9974 3.73281 18.1333 3.39454C16.6997 3.54791 15.3911 3.84877 14.326 4.27963C12.804 4.89519 12.264 5.58538 12.264 5.9893C12.264 6.39322 12.804 7.08341 14.326 7.69897C15.9239 8.3453 18.0681 8.70125 20.3636 8.70125C22.659 8.70125 24.8032 8.3453 26.4012 7.69897C27.9231 7.08341 28.4631 6.39332 28.4631 5.9893C28.4631 5.33371 27.2088 4.36305 24.8115 3.7762C24.3187 3.65556 24.0151 3.15063 24.1335 2.64842C24.2518 2.14621 24.7476 1.83684 25.2404 1.95758C28.4551 2.74447 30.2988 4.21407 30.2988 5.98939C30.2988 7.37305 29.1551 8.59762 27.0784 9.43754C25.2701 10.169 22.8854 10.5718 20.3636 10.5718ZM34.3922 14.7946C39.6282 16.4924 40.7273 18.6408 40.7273 20.1442C40.7273 20.1687 40.7269 20.1934 40.7264 20.2182C40.7067 25.5023 38.5858 30.4651 34.7478 34.1994C30.9035 37.94 25.795 40 20.3636 40C14.9323 40 9.8239 37.94 5.9795 34.1994C2.14152 30.4651 0.0205598 25.5023 0.000917847 20.2182C0.000367139 20.1934 0 20.1687 0 20.1442C0 18.6408 1.09912 16.4924 6.33517 14.7945C10.0956 13.5752 15.0777 12.9037 20.3637 12.9037C23.9135 12.9037 27.3256 13.207 30.3234 13.7752L32.6082 10.2385C32.8869 9.80713 33.4561 9.68761 33.8795 9.97164C34.3029 10.2557 34.4202 10.8356 34.1414 11.267L32.2521 14.1915C33.0011 14.3745 33.7167 14.5755 34.3922 14.7946ZM38.8916 20.1442C38.8916 18.9551 36.9543 17.5882 33.8355 16.577C33.0092 16.309 32.1183 16.0692 31.1754 15.8582L27.4045 21.6951C30.224 22.0444 32.797 22.6016 34.9012 23.3344C37.3891 22.3759 38.8916 21.1912 38.8916 20.1442ZM9.11349 24.3292C12.3504 25.0984 16.2536 25.5141 20.3636 25.5141C21.1753 25.5141 21.9788 25.4978 22.7707 25.4658L24.1905 23.2681C22.9415 23.1855 21.66 23.1426 20.3634 23.1426C16.2793 23.1426 12.3432 23.5652 9.11349 24.3292ZM31.6139 24.3292C29.9889 23.9448 28.1849 23.6471 26.2733 23.446L25.0578 25.3275C27.4214 25.1355 29.6413 24.7979 31.6139 24.3292ZM20.3635 14.7743C15.2613 14.7743 10.477 15.4145 6.89166 16.577C3.773 17.5881 1.83569 18.9551 1.83569 20.1442C1.83569 21.1913 3.3383 22.376 5.82613 23.3344C9.59444 22.0219 14.8652 21.2721 20.3633 21.2721C22.0581 21.2721 23.7308 21.3439 25.3451 21.4808L29.2245 15.4759C26.5287 15.0175 23.5067 14.7743 20.3635 14.7743ZM2.17034 23.5525C3.81577 31.8454 11.3475 38.1296 20.3636 38.1296C29.3797 38.1296 36.9115 31.8455 38.5569 23.5525C37.6039 24.2239 36.2619 24.8876 34.3922 25.4938C30.6319 26.7131 25.6497 27.3846 20.3636 27.3846C15.0776 27.3846 10.0955 26.7131 6.33508 25.4938C4.46533 24.8875 3.12334 24.2238 2.17034 23.5525Z" fill="#FFB84D"/>
</svg>
