<svg width="196" height="40" viewBox="0 0 196 40" fill="none" xmlns="http://www.w3.org/2000/svg">
<path d="M63.6923 18.0208C68.0192 18.0208 71.0131 15.5311 71.0131 9.96216H63.4301V12.43H67.6914C67.6696 12.561 67.6477 12.692 67.604 12.8012C67.2107 14.3736 65.6591 15.3127 63.6923 15.3127C61.07 15.3127 59.0376 12.9978 59.0376 10.3116C59.0376 7.62538 61.07 5.3978 63.6923 5.3978C65.0035 5.3978 66.2054 5.96561 67.0577 6.88285L69.2649 4.98286C67.9537 3.51964 65.965 2.58057 63.6923 2.58057C59.3654 2.58057 56 6.03113 56 10.3116C56 14.5702 59.3654 18.0208 63.6923 18.0208Z" fill="white"/>
<path d="M77.8724 18.0208C80.7789 18.0208 83.3575 15.9242 83.3575 12.7139C83.3575 9.4817 80.7789 7.38515 77.8724 7.38515C74.9659 7.38515 72.3873 9.4817 72.3873 12.7139C72.3873 15.9242 74.9659 18.0208 77.8724 18.0208ZM77.8724 15.3564C76.452 15.3564 75.2937 14.2863 75.2937 12.7139C75.2937 11.1196 76.452 10.0495 77.8724 10.0495C79.2929 10.0495 80.4511 11.1196 80.4511 12.7139C80.4511 14.2863 79.2929 15.3564 77.8724 15.3564Z" fill="white"/>
<path d="M93.6541 17.8242H97.2161L93.3044 12.2771C95.8394 11.753 96.9539 9.83112 96.9539 7.6909C96.9539 5.22309 95.4679 2.77712 92.0151 2.77712H86.0055V17.8242H89.0431V12.43H90.0702L93.6541 17.8242ZM89.0431 5.46332H91.7092C93.1296 5.46332 93.8945 6.55527 93.8945 7.75642C93.8945 8.95756 93.1733 9.984 91.4688 9.984H89.0431V5.46332Z" fill="white"/>
<path d="M109.089 12.561C109.089 9.43802 106.707 7.38515 103.801 7.38515C100.872 7.38515 98.381 9.43802 98.381 12.7357C98.381 15.8805 100.676 18.0208 103.801 18.0208C105.593 18.0208 107.384 17.3219 108.346 16.0334L106.663 14.3518C106.051 15.0725 105.024 15.4874 103.997 15.4874C102.621 15.4874 101.659 14.8323 101.353 13.653H109.045C109.067 13.1943 109.089 12.8449 109.089 12.561ZM101.353 11.7966C101.659 10.4208 102.686 9.8748 103.844 9.8748C105.134 9.8748 106.139 10.5955 106.226 11.7966H101.353Z" fill="white"/>
<path d="M114.912 18.0208C117.01 18.0208 119.196 16.9725 119.196 14.8323C119.196 14.0024 118.89 12.4736 116.442 11.8185L114.759 11.3817C114.191 11.2288 113.754 10.9886 113.754 10.5081C113.754 9.984 114.279 9.65641 114.934 9.65641C115.612 9.65641 116.18 10.0277 116.18 10.7047H118.911C118.933 8.30239 116.748 7.38515 114.89 7.38515C112.53 7.38515 110.891 8.84837 110.891 10.4208C110.891 11.4909 111.241 12.9541 113.863 13.653L115.218 13.9805C115.983 14.1771 116.333 14.3955 116.333 14.8323C116.333 15.4219 115.699 15.7713 114.869 15.7713C113.863 15.7713 113.361 15.138 113.361 14.5484H110.673C110.695 16.7978 112.771 18.0208 114.912 18.0208Z" fill="white"/>
<path d="M127.41 7.64722H125.247V3.91275H122.384V7.64722H120.527V9.85296H122.384V17.8242H125.247V9.85296H127.41V7.64722Z" fill="white"/>
<path d="M136.754 7.64722V8.87021C136.033 7.84377 134.656 7.40699 133.476 7.40699C130.854 7.40699 128.472 9.43802 128.472 12.7139C128.472 15.9897 130.854 18.0208 133.476 18.0208C134.612 18.0208 136.033 17.5621 136.754 16.5575V17.8242H139.617V7.64722H136.754ZM134.022 15.3564C132.58 15.3564 131.378 14.1989 131.378 12.7139C131.378 11.207 132.58 10.0932 134.022 10.0932C135.355 10.0932 136.667 11.1415 136.667 12.7139C136.667 14.2644 135.421 15.3564 134.022 15.3564Z" fill="white"/>
<path d="M149.478 7.64722V12.8667C149.478 14.7012 148.211 15.2472 147.184 15.2472C146.2 15.2472 145.239 14.5265 145.239 12.9323V7.64722H142.376V13.238C142.354 16.2955 143.753 18.0644 146.419 18.0644C147.424 18.0644 149.041 17.4966 149.478 16.1644V17.8242H152.341V7.64722H149.478Z" fill="white"/>
<path d="M161.061 7.38515C159.793 7.38515 158.635 8.10584 158.067 9.80928V7.64722H155.226V17.8242H158.089V14.33C158.089 11.4254 159.094 10.0714 160.558 10.0714C160.908 10.0714 161.411 10.115 162.022 10.4426L162.678 7.71274C162.219 7.47251 161.607 7.38515 161.061 7.38515Z" fill="white"/>
<path d="M171.646 7.64722V8.87021C170.925 7.84377 169.548 7.40699 168.368 7.40699C165.746 7.40699 163.364 9.43802 163.364 12.7139C163.364 15.9897 165.746 18.0208 168.368 18.0208C169.505 18.0208 170.925 17.5621 171.646 16.5575V17.8242H174.509V7.64722H171.646ZM168.915 15.3564C167.472 15.3564 166.27 14.1989 166.27 12.7139C166.27 11.207 167.472 10.0932 168.915 10.0932C170.248 10.0932 171.559 11.1415 171.559 12.7139C171.559 14.2644 170.313 15.3564 168.915 15.3564Z" fill="white"/>
<path d="M183.322 7.38515C182.316 7.38515 180.699 7.97481 180.262 9.35066V7.64722H177.399V17.8242H180.262V12.6047C180.262 10.7484 181.53 10.2024 182.557 10.2024C183.54 10.2024 184.502 10.9231 184.502 12.5392V17.8242H187.364V12.2334C187.386 9.17595 185.988 7.38515 183.322 7.38515Z" fill="white"/>
<path d="M196 7.64722H193.837V3.91275H190.974V7.64722H189.116V9.85296H190.974V17.8242H193.837V9.85296H196V7.64722Z" fill="white"/>
<path d="M61.5064 33.6995C61.418 34.4612 61.138 35.0499 60.6665 35.4654C60.1982 35.8776 59.5744 36.0837 58.795 36.0837C57.9501 36.0837 57.2723 35.7786 56.7614 35.1686C56.2538 34.5585 56 33.7423 56 32.7201V32.0276C56 31.3581 56.1179 30.7695 56.3537 30.2617C56.5928 29.7538 56.9301 29.3647 57.3656 29.0943C57.8011 28.8206 58.3054 28.6838 58.8785 28.6838C59.6382 28.6838 60.2473 28.8981 60.7058 29.3268C61.1642 29.7522 61.4311 30.3425 61.5064 31.0976H60.5584C60.4765 30.5238 60.2981 30.1083 60.023 29.8511C59.7512 29.5939 59.3697 29.4653 58.8785 29.4653C58.276 29.4653 57.8028 29.6895 57.4589 30.138C57.1183 30.5865 56.9481 31.2246 56.9481 32.0523V32.7498C56.9481 33.5313 57.1102 34.1529 57.4344 34.6146C57.7585 35.0762 58.2121 35.3071 58.795 35.3071C59.3189 35.3071 59.7201 35.1884 59.9984 34.9509C60.2801 34.7102 60.4667 34.293 60.5584 33.6995H61.5064Z" fill="#FFB1B1"/>
<path d="M62.4152 33.2592C62.4152 32.7349 62.5167 32.2633 62.7197 31.8445C62.926 31.4257 63.2109 31.1026 63.5744 30.875C63.9412 30.6475 64.3587 30.5337 64.827 30.5337C65.5507 30.5337 66.1352 30.786 66.5806 31.2905C67.0292 31.7951 67.2535 32.4662 67.2535 33.3038V33.3681C67.2535 33.8891 67.1536 34.3574 66.9539 34.7729C66.7574 35.1851 66.4741 35.5066 66.1041 35.7374C65.7373 35.9683 65.3149 36.0837 64.8368 36.0837C64.1164 36.0837 63.5318 35.8314 63.0832 35.3269C62.6378 34.8223 62.4152 34.1545 62.4152 33.3235V33.2592ZM63.3288 33.3681C63.3288 33.9616 63.4647 34.4381 63.7365 34.7976C64.0116 35.157 64.3783 35.3368 64.8368 35.3368C65.2985 35.3368 65.6653 35.1554 65.9371 34.7926C66.2089 34.4266 66.3448 33.9155 66.3448 33.2592C66.3448 32.6723 66.2056 32.1974 65.9273 31.8347C65.6522 31.4686 65.2854 31.2856 64.827 31.2856C64.3783 31.2856 64.0165 31.4653 63.7414 31.8248C63.4663 32.1842 63.3288 32.6986 63.3288 33.3681Z" fill="#FFB1B1"/>
<path d="M69.2478 30.6327L69.2724 31.2262C69.6621 30.7646 70.1877 30.5337 70.8491 30.5337C71.5925 30.5337 72.0984 30.8206 72.367 31.3944C72.5438 31.1372 72.773 30.9294 73.0546 30.7712C73.3395 30.6129 73.6752 30.5337 74.0616 30.5337C75.2274 30.5337 75.8201 31.1553 75.8398 32.3986V35.9847H74.931V32.453C74.931 32.0704 74.8443 31.7852 74.6707 31.5972C74.4972 31.406 74.2057 31.3103 73.7964 31.3103C73.4591 31.3103 73.1791 31.4126 72.9564 31.617C72.7337 31.8182 72.6044 32.0902 72.5684 32.4332V35.9847H71.6547V32.4777C71.6547 31.6995 71.2765 31.3103 70.52 31.3103C69.924 31.3103 69.5163 31.5659 69.2969 32.077V35.9847H68.3882V30.6327H69.2478Z" fill="#FFB1B1"/>
<path d="M78.2025 35.9847H77.2937V30.6327H78.2025V35.9847ZM77.2201 29.213C77.2201 29.0646 77.2643 28.9393 77.3527 28.8371C77.4444 28.7349 77.5786 28.6838 77.7555 28.6838C77.9323 28.6838 78.0666 28.7349 78.1583 28.8371C78.25 28.9393 78.2958 29.0646 78.2958 29.213C78.2958 29.3614 78.25 29.4851 78.1583 29.584C78.0666 29.6829 77.9323 29.7324 77.7555 29.7324C77.5786 29.7324 77.4444 29.6829 77.3527 29.584C77.2643 29.4851 77.2201 29.3614 77.2201 29.213Z" fill="#FFB1B1"/>
<path d="M79.4403 33.2642C79.4403 32.4431 79.6335 31.7835 80.0199 31.2856C80.4063 30.7844 80.9123 30.5337 81.5377 30.5337C82.1599 30.5337 82.6528 30.7481 83.0163 31.1768V28.387H83.925V35.9847H83.09L83.0457 35.411C82.6823 35.8594 82.1763 36.0837 81.5279 36.0837C80.9123 36.0837 80.4096 35.8298 80.0199 35.3219C79.6335 34.8141 79.4403 34.1513 79.4403 33.3334V33.2642ZM80.349 33.3681C80.349 33.9748 80.4735 34.4497 80.7223 34.7926C80.9712 35.1356 81.3151 35.3071 81.7539 35.3071C82.3302 35.3071 82.751 35.0466 83.0163 34.5255V32.0671C82.7445 31.5626 82.3269 31.3103 81.7637 31.3103C81.3183 31.3103 80.9712 31.4835 80.7223 31.8297C80.4735 32.176 80.349 32.6887 80.349 33.3681Z" fill="#FFB1B1"/>
<path d="M88.6209 35.9847C88.5685 35.8792 88.5259 35.6913 88.4932 35.4208C88.0708 35.8627 87.5665 36.0837 86.9803 36.0837C86.4563 36.0837 86.0257 35.9353 85.6884 35.6385C85.3544 35.3384 85.1874 34.9592 85.1874 34.5008C85.1874 33.9435 85.397 33.5115 85.8161 33.2048C86.2386 32.8948 86.8313 32.7399 87.5943 32.7399H88.4785V32.3194C88.4785 31.9995 88.3835 31.7456 88.1936 31.5577C88.0036 31.3664 87.7236 31.2708 87.3536 31.2708C87.0294 31.2708 86.7576 31.3532 86.5382 31.5181C86.3188 31.683 86.2091 31.8825 86.2091 32.1166H85.2955C85.2955 31.8495 85.3888 31.5923 85.5754 31.345C85.7654 31.0943 86.0208 30.8965 86.3417 30.7514C86.6659 30.6063 87.0212 30.5337 87.4076 30.5337C88.02 30.5337 88.4997 30.6887 88.8469 30.9987C89.194 31.3054 89.3741 31.7291 89.3872 32.2699V34.7333C89.3872 35.2246 89.4494 35.6154 89.5738 35.9056V35.9847H88.6209ZM87.1129 35.2873C87.3978 35.2873 87.668 35.2131 87.9234 35.0647C88.1788 34.9163 88.3638 34.7234 88.4785 34.486V33.3878H87.7662C86.6528 33.3878 86.0961 33.716 86.0961 34.3722C86.0961 34.6591 86.1911 34.8833 86.381 35.0449C86.571 35.2065 86.8149 35.2873 87.1129 35.2873Z" fill="#FFB1B1"/>
<path d="M94.4613 35.9847H93.5182V28.7827H94.4613V35.9847Z" fill="#FFB1B1"/>
<path d="M97.2808 29.3367V30.6327H98.2731V31.34H97.2808V34.6591C97.2808 34.8734 97.3251 35.035 97.4135 35.1438C97.5019 35.2494 97.6525 35.3021 97.8654 35.3021C97.9702 35.3021 98.1143 35.2823 98.2976 35.2428V35.9847C98.0586 36.0507 97.8261 36.0837 97.6001 36.0837C97.1941 36.0837 96.8879 35.96 96.6816 35.7127C96.4753 35.4654 96.3721 35.1142 96.3721 34.6591V31.34H95.4044V30.6327H96.3721V29.3367H97.2808Z" fill="#FFB1B1"/>
<path d="M102.62 35.9847C102.568 35.8792 102.525 35.6913 102.493 35.4208C102.07 35.8627 101.566 36.0837 100.98 36.0837C100.456 36.0837 100.025 35.9353 99.6877 35.6385C99.3537 35.3384 99.1867 34.9592 99.1867 34.5008C99.1867 33.9435 99.3963 33.5115 99.8155 33.2048C100.238 32.8948 100.831 32.7399 101.594 32.7399H102.478V32.3194C102.478 31.9995 102.383 31.7456 102.193 31.5577C102.003 31.3664 101.723 31.2708 101.353 31.2708C101.029 31.2708 100.757 31.3532 100.538 31.5181C100.318 31.683 100.208 31.8825 100.208 32.1166H99.2948C99.2948 31.8495 99.3881 31.5923 99.5748 31.345C99.7647 31.0943 100.02 30.8965 100.341 30.7514C100.665 30.6063 101.021 30.5337 101.407 30.5337C102.019 30.5337 102.499 30.6887 102.846 30.9987C103.193 31.3054 103.373 31.7291 103.387 32.2699V34.7333C103.387 35.2246 103.449 35.6154 103.573 35.9056V35.9847H102.62ZM101.112 35.2873C101.397 35.2873 101.667 35.2131 101.923 35.0647C102.178 34.9163 102.363 34.7234 102.478 34.486V33.3878H101.766C100.652 33.3878 100.095 33.716 100.095 34.3722C100.095 34.6591 100.19 34.8833 100.38 35.0449C100.57 35.2065 100.814 35.2873 101.112 35.2873Z" fill="#FFB1B1"/>
<path d="M105.798 35.9847H104.89V28.387H105.798V35.9847Z" fill="#FFB1B1"/>
<path d="M108.245 35.9847H107.336V30.6327H108.245V35.9847ZM107.262 29.213C107.262 29.0646 107.306 28.9393 107.395 28.8371C107.486 28.7349 107.621 28.6838 107.798 28.6838C107.974 28.6838 108.109 28.7349 108.2 28.8371C108.292 28.9393 108.338 29.0646 108.338 29.213C108.338 29.3614 108.292 29.4851 108.2 29.584C108.109 29.6829 107.974 29.7324 107.798 29.7324C107.621 29.7324 107.486 29.6829 107.395 29.584C107.306 29.4851 107.262 29.3614 107.262 29.213Z" fill="#FFB1B1"/>
<path d="M112.985 35.9847C112.932 35.8792 112.89 35.6913 112.857 35.4208C112.434 35.8627 111.93 36.0837 111.344 36.0837C110.82 36.0837 110.389 35.9353 110.052 35.6385C109.718 35.3384 109.551 34.9592 109.551 34.5008C109.551 33.9435 109.761 33.5115 110.18 33.2048C110.602 32.8948 111.195 32.7399 111.958 32.7399H112.842V32.3194C112.842 31.9995 112.747 31.7456 112.557 31.5577C112.367 31.3664 112.087 31.2708 111.717 31.2708C111.393 31.2708 111.121 31.3532 110.902 31.5181C110.683 31.683 110.573 31.8825 110.573 32.1166H109.659C109.659 31.8495 109.753 31.5923 109.939 31.345C110.129 31.0943 110.385 30.8965 110.705 30.7514C111.03 30.6063 111.385 30.5337 111.771 30.5337C112.384 30.5337 112.863 30.6887 113.211 30.9987C113.558 31.3054 113.738 31.7291 113.751 32.2699V34.7333C113.751 35.2246 113.813 35.6154 113.938 35.9056V35.9847H112.985ZM111.477 35.2873C111.762 35.2873 112.032 35.2131 112.287 35.0647C112.543 34.9163 112.728 34.7234 112.842 34.486V33.3878H112.13C111.017 33.3878 110.46 33.716 110.46 34.3722C110.46 34.6591 110.555 34.8833 110.745 35.0449C110.935 35.2065 111.179 35.2873 111.477 35.2873Z" fill="#FFB1B1"/>
<path d="M116.035 30.6327L116.064 31.3054C116.471 30.7909 117.001 30.5337 117.656 30.5337C118.779 30.5337 119.346 31.1718 119.356 32.448V35.9847H118.447V32.4431C118.444 32.0572 118.355 31.772 118.182 31.5873C118.011 31.4027 117.744 31.3103 117.381 31.3103C117.086 31.3103 116.827 31.3895 116.605 31.5478C116.382 31.706 116.209 31.9138 116.084 32.171V35.9847H115.175V30.6327H116.035Z" fill="#FFB1B1"/>
<path d="M124.007 35.9847C123.955 35.8792 123.912 35.6913 123.88 35.4208C123.457 35.8627 122.953 36.0837 122.367 36.0837C121.843 36.0837 121.412 35.9353 121.075 35.6385C120.741 35.3384 120.574 34.9592 120.574 34.5008C120.574 33.9435 120.783 33.5115 121.202 33.2048C121.625 32.8948 122.218 32.7399 122.981 32.7399H123.865V32.3194C123.865 31.9995 123.77 31.7456 123.58 31.5577C123.39 31.3664 123.11 31.2708 122.74 31.2708C122.416 31.2708 122.144 31.3532 121.925 31.5181C121.705 31.683 121.595 31.8825 121.595 32.1166H120.682C120.682 31.8495 120.775 31.5923 120.962 31.345C121.152 31.0943 121.407 30.8965 121.728 30.7514C122.052 30.6063 122.408 30.5337 122.794 30.5337C123.406 30.5337 123.886 30.6887 124.233 30.9987C124.58 31.3054 124.76 31.7291 124.774 32.2699V34.7333C124.774 35.2246 124.836 35.6154 124.96 35.9056V35.9847H124.007ZM122.499 35.2873C122.784 35.2873 123.054 35.2131 123.31 35.0647C123.565 34.9163 123.75 34.7234 123.865 34.486V33.3878H123.153C122.039 33.3878 121.482 33.716 121.482 34.3722C121.482 34.6591 121.577 34.8833 121.767 35.0449C121.957 35.2065 122.201 35.2873 122.499 35.2873Z" fill="#FFB1B1"/>
<path d="M126.169 37.4192L125.653 37.0631C125.961 36.6311 126.121 36.1859 126.134 35.7275V34.9015H127.023V35.6187C127.023 35.9518 126.941 36.2848 126.778 36.6179C126.617 36.951 126.414 37.2181 126.169 37.4192Z" fill="#FFB1B1"/>
<path d="M133.763 34.5651C133.763 34.3178 133.669 34.1265 133.483 33.9913C133.299 33.8528 132.977 33.7341 132.515 33.6352C132.056 33.5362 131.691 33.4175 131.42 33.279C131.151 33.1405 130.951 32.9756 130.82 32.7844C130.693 32.5931 130.629 32.3656 130.629 32.1018C130.629 31.6632 130.812 31.2922 131.179 30.9888C131.549 30.6854 132.02 30.5337 132.594 30.5337C133.196 30.5337 133.684 30.6904 134.057 31.0036C134.434 31.3169 134.622 31.7176 134.622 32.2056H133.709C133.709 31.955 133.602 31.739 133.389 31.5577C133.18 31.3763 132.914 31.2856 132.594 31.2856C132.263 31.2856 132.004 31.3581 131.817 31.5032C131.631 31.6483 131.537 31.838 131.537 32.0721C131.537 32.293 131.624 32.4596 131.798 32.5717C131.971 32.6838 132.284 32.791 132.736 32.8932C133.191 32.9954 133.56 33.1174 133.841 33.2592C134.123 33.401 134.331 33.5725 134.465 33.7737C134.603 33.9715 134.671 34.2139 134.671 34.5008C134.671 34.979 134.481 35.3631 134.102 35.6533C133.722 35.9402 133.229 36.0837 132.623 36.0837C132.197 36.0837 131.821 36.0078 131.493 35.8561C131.166 35.7044 130.909 35.4934 130.722 35.223C130.539 34.9493 130.447 34.6541 130.447 34.3376H131.356C131.372 34.6442 131.493 34.8883 131.719 35.0696C131.948 35.2477 132.25 35.3368 132.623 35.3368C132.967 35.3368 133.242 35.2675 133.448 35.129C133.658 34.9872 133.763 34.7992 133.763 34.5651Z" fill="#FFB1B1"/>
<path d="M136.842 35.9847H135.934V30.6327H136.842V35.9847ZM135.86 29.213C135.86 29.0646 135.904 28.9393 135.993 28.8371C136.084 28.7349 136.219 28.6838 136.395 28.6838C136.572 28.6838 136.707 28.7349 136.798 28.8371C136.89 28.9393 136.936 29.0646 136.936 29.213C136.936 29.3614 136.89 29.4851 136.798 29.584C136.707 29.6829 136.572 29.7324 136.395 29.7324C136.219 29.7324 136.084 29.6829 135.993 29.584C135.904 29.4851 135.86 29.3614 135.86 29.213Z" fill="#FFB1B1"/>
<path d="M139.156 30.6327L139.181 31.2262C139.57 30.7646 140.096 30.5337 140.757 30.5337C141.501 30.5337 142.007 30.8206 142.275 31.3944C142.452 31.1372 142.681 30.9294 142.963 30.7712C143.248 30.6129 143.583 30.5337 143.97 30.5337C145.136 30.5337 145.728 31.1553 145.748 32.3986V35.9847H144.839V32.453C144.839 32.0704 144.752 31.7852 144.579 31.5972C144.405 31.406 144.114 31.3103 143.705 31.3103C143.367 31.3103 143.087 31.4126 142.865 31.617C142.642 31.8182 142.513 32.0902 142.477 32.4332V35.9847H141.563V32.4777C141.563 31.6995 141.185 31.3103 140.428 31.3103C139.832 31.3103 139.425 31.5659 139.205 32.077V35.9847H138.296V30.6327H139.156Z" fill="#FFB1B1"/>
<path d="M147.143 35.5049C147.143 35.3466 147.189 35.2147 147.281 35.1092C147.375 35.0037 147.516 34.9509 147.703 34.9509C147.89 34.9509 148.03 35.0037 148.125 35.1092C148.224 35.2147 148.273 35.3466 148.273 35.5049C148.273 35.6566 148.224 35.7836 148.125 35.8858C148.03 35.988 147.89 36.0392 147.703 36.0392C147.516 36.0392 147.375 35.988 147.281 35.8858C147.189 35.7836 147.143 35.6566 147.143 35.5049Z" fill="#FFB1B1"/>
<path fill-rule="evenodd" clip-rule="evenodd" d="M20.3636 10.5718C17.8418 10.5718 15.457 10.169 13.6487 9.43754C11.5721 8.59762 10.4283 7.37305 10.4284 5.9893C10.4284 4.60565 11.5721 3.38107 13.6488 2.54115C14.9426 2.0179 16.5323 1.66392 18.2554 1.50418C17.9784 1.13748 18.004 0.609832 18.3337 0.273902C18.6922 -0.0913007 19.2733 -0.0913007 19.6318 0.273902L21.0125 1.68094C21.3709 2.04614 21.3709 2.63832 21.0125 3.00352L19.6317 4.41047C19.4525 4.59311 19.2175 4.68439 18.9827 4.68439C18.7478 4.68439 18.5129 4.59311 18.3337 4.41047C18.0642 4.13579 17.9974 3.73281 18.1333 3.39454C16.6997 3.54791 15.3911 3.84877 14.326 4.27963C12.804 4.89519 12.264 5.58538 12.264 5.9893C12.264 6.39322 12.804 7.08341 14.326 7.69897C15.9239 8.3453 18.0681 8.70125 20.3636 8.70125C22.659 8.70125 24.8032 8.3453 26.4012 7.69897C27.9231 7.08341 28.4631 6.39332 28.4631 5.9893C28.4631 5.33371 27.2088 4.36305 24.8115 3.7762C24.3187 3.65556 24.0151 3.15063 24.1335 2.64842C24.2518 2.14621 24.7476 1.83684 25.2404 1.95758C28.4551 2.74447 30.2988 4.21407 30.2988 5.98939C30.2988 7.37305 29.1551 8.59762 27.0784 9.43754C25.2701 10.169 22.8854 10.5718 20.3636 10.5718ZM34.3922 14.7946C39.6282 16.4924 40.7273 18.6408 40.7273 20.1442C40.7273 20.1687 40.7269 20.1934 40.7264 20.2182C40.7067 25.5023 38.5858 30.4651 34.7478 34.1994C30.9035 37.94 25.795 40 20.3636 40C14.9323 40 9.8239 37.94 5.9795 34.1994C2.14152 30.4651 0.0205598 25.5023 0.000917847 20.2182C0.000367139 20.1934 0 20.1687 0 20.1442C0 18.6408 1.09912 16.4924 6.33517 14.7945C10.0956 13.5752 15.0777 12.9037 20.3637 12.9037C23.9135 12.9037 27.3256 13.207 30.3234 13.7752L32.6082 10.2385C32.8869 9.80713 33.4561 9.68761 33.8795 9.97164C34.3029 10.2557 34.4202 10.8356 34.1414 11.267L32.2521 14.1915C33.0011 14.3745 33.7167 14.5755 34.3922 14.7946ZM38.8916 20.1442C38.8916 18.9551 36.9543 17.5882 33.8355 16.577C33.0092 16.309 32.1183 16.0692 31.1754 15.8582L27.4045 21.6951C30.224 22.0444 32.797 22.6016 34.9012 23.3344C37.3891 22.3759 38.8916 21.1912 38.8916 20.1442ZM9.11349 24.3292C12.3504 25.0984 16.2536 25.5141 20.3636 25.5141C21.1753 25.5141 21.9788 25.4978 22.7707 25.4658L24.1905 23.2681C22.9415 23.1855 21.66 23.1426 20.3634 23.1426C16.2793 23.1426 12.3432 23.5652 9.11349 24.3292ZM31.6139 24.3292C29.9889 23.9448 28.1849 23.6471 26.2733 23.446L25.0578 25.3275C27.4214 25.1355 29.6413 24.7979 31.6139 24.3292ZM20.3635 14.7743C15.2613 14.7743 10.477 15.4145 6.89166 16.577C3.773 17.5881 1.83569 18.9551 1.83569 20.1442C1.83569 21.1913 3.3383 22.376 5.82613 23.3344C9.59444 22.0219 14.8652 21.2721 20.3633 21.2721C22.0581 21.2721 23.7308 21.3439 25.3451 21.4808L29.2245 15.4759C26.5287 15.0175 23.5067 14.7743 20.3635 14.7743ZM2.17034 23.5525C3.81577 31.8454 11.3475 38.1296 20.3636 38.1296C29.3797 38.1296 36.9115 31.8455 38.5569 23.5525C37.6039 24.2239 36.2619 24.8876 34.3922 25.4938C30.6319 26.7131 25.6497 27.3846 20.3636 27.3846C15.0776 27.3846 10.0955 26.7131 6.33508 25.4938C4.46533 24.8875 3.12334 24.2238 2.17034 23.5525Z" fill="#FFB84D"/>
</svg>
