<svg width="54" height="46" viewBox="0 0 54 46" fill="none" xmlns="http://www.w3.org/2000/svg">
<path d="M25.2263 13.6668C27.1653 13.672 29.0257 12.9013 30.3932 11.5267C31.4115 10.5033 32.7968 9.92961 34.2404 9.93346H53.5C53.7761 9.93346 54 9.7096 54 9.43346V4.83346C54 4.55731 53.7761 4.33346 53.5 4.33346H34.2404C32.7968 4.33731 31.4115 3.76366 30.3932 2.74026C29.0257 1.36557 27.1653 0.59499 25.2263 0.600123H7.83333C7.55719 0.600123 7.33333 0.823981 7.33333 1.10012V1.96679C7.33333 2.24293 7.55719 2.46679 7.83333 2.46679H19.9C20.1761 2.46679 20.4 2.69065 20.4 2.96679V3.83346C20.4 4.1096 20.1761 4.33346 19.9 4.33346H7.83333C7.55719 4.33346 7.33333 4.55731 7.33333 4.83346V5.70012C7.33333 5.97627 7.55719 6.20012 7.83333 6.20012H8.7C8.97614 6.20012 9.2 6.42398 9.2 6.70012V7.56679C9.2 7.84293 8.97614 8.06679 8.7 8.06679H7.83333C7.55719 8.06679 7.33333 8.29065 7.33333 8.56679V9.43346C7.33333 9.7096 7.55719 9.93346 7.83333 9.93346H8.7C8.97614 9.93346 9.2 10.1573 9.2 10.4335V11.3001C9.2 11.5763 8.97614 11.8001 8.7 11.8001H7.83333C7.55719 11.8001 7.33333 12.024 7.33333 12.3001V13.1668C7.33333 13.4429 7.55719 13.6668 7.83333 13.6668H8.7C8.97614 13.6668 9.2 13.8906 9.2 14.1668V33.7001C9.2 33.9763 8.97614 34.2001 8.7 34.2001H0.499999C0.223857 34.2001 0 34.424 0 34.7001V35.1335C0.00618333 40.801 4.59912 45.3939 10.2667 45.4001H43.7333C49.4009 45.3939 53.9938 40.801 54 35.1335V34.7001C54 34.424 53.7761 34.2001 53.5 34.2001H52.6797C52.3316 34.2001 52.0881 33.8486 52.1211 33.502C52.1285 33.4239 52.1326 33.3454 52.1333 33.2668C52.1288 32.197 51.518 31.2417 50.5895 30.7761C50.3208 30.6413 50.1656 30.3284 50.2208 30.033C50.4592 28.7575 49.7781 27.4476 48.5294 26.9394C48.192 26.8021 47.8309 26.7321 47.4667 26.7335H46.1464C45.7982 26.7335 45.5548 26.3819 45.5877 26.0353C45.5951 25.9572 45.5993 25.8788 45.6 25.8001C45.6 24.2537 44.3464 23.0001 42.8 23.0001H40.4527C38.7188 22.9952 37.055 23.6845 35.8327 24.9144L34.16 26.587C34.0663 26.6808 33.9391 26.7335 33.8065 26.7335H28.8C27.2593 26.7275 26.0055 27.9716 25.9994 29.5123C25.9987 29.6873 26.0145 29.8616 26.0463 30.0328C26.1012 30.3284 25.9459 30.6413 25.6772 30.7761C24.7487 31.2418 24.1379 32.197 24.1333 33.2668C24.1341 33.3454 24.1382 33.4239 24.1456 33.502C24.1785 33.8486 23.9351 34.2001 23.5869 34.2001H22.7667C22.4905 34.2001 22.2667 33.9763 22.2667 33.7001V14.1668C22.2667 13.8906 22.4905 13.6668 22.7667 13.6668H25.2263ZM22.2667 2.96679C22.2667 2.69065 22.4905 2.46679 22.7667 2.46679H25.2263C26.6699 2.46294 28.0552 3.03659 29.0735 4.05999C30.4409 5.43467 32.3014 6.20537 34.2404 6.20012H51.6333C51.9095 6.20012 52.1333 6.42398 52.1333 6.70012V7.56679C52.1333 7.84293 51.9095 8.06679 51.6333 8.06679H34.2404C32.3014 8.06154 30.4409 8.83224 29.0735 10.2069C28.0552 11.2303 26.6699 11.804 25.2263 11.8001H22.7667C22.4905 11.8001 22.2667 11.5763 22.2667 11.3001V2.96679ZM18.5333 6.70012C18.5333 6.42398 18.7572 6.20012 19.0333 6.20012H19.9C20.1761 6.20012 20.4 6.42398 20.4 6.70012V33.7001C20.4 33.9763 20.1761 34.2001 19.9 34.2001H19.0333C18.7572 34.2001 18.5333 33.9763 18.5333 33.7001V6.70012ZM14.8 6.70012C14.8 6.42398 15.0239 6.20012 15.3 6.20012H16.1667C16.4428 6.20012 16.6667 6.42398 16.6667 6.70012V33.7001C16.6667 33.9763 16.4428 34.2001 16.1667 34.2001H15.3C15.0239 34.2001 14.8 33.9763 14.8 33.7001V6.70012ZM11.0667 6.70012C11.0667 6.42398 11.2905 6.20012 11.5667 6.20012H12.4333C12.7095 6.20012 12.9333 6.42398 12.9333 6.70012V33.7001C12.9333 33.9763 12.7095 34.2001 12.4333 34.2001H11.5667C11.2905 34.2001 11.0667 33.9763 11.0667 33.7001V6.70012ZM49.3333 32.3335C49.8488 32.3335 50.2667 32.7514 50.2667 33.2668C50.2667 33.7822 49.8488 34.2001 49.3333 34.2001H36.7667C36.4905 34.2001 36.2667 33.9763 36.2667 33.7001V33.1063C36.2676 32.8589 36.3658 32.6219 36.5401 32.4464C36.6124 32.3741 36.7105 32.3335 36.8128 32.3335H49.3333ZM47.4667 28.6001C47.9821 28.6001 48.4 29.018 48.4 29.5335C48.4 30.0489 47.9821 30.4668 47.4667 30.4668H39.7268C39.2814 30.4668 39.0583 29.9282 39.3733 29.6132L40.1129 28.8736C40.2882 28.6984 40.5259 28.5999 40.7737 28.6001H47.4667ZM32.5333 32.7861C32.5357 32.3965 32.5868 32.0085 32.6855 31.6316C32.891 30.8222 33.3101 30.0828 33.8988 29.4905L36.654 26.7335L37.1533 26.2341C38.0262 25.3559 39.2144 24.8634 40.4527 24.8668H42.8C43.3154 24.8668 43.7333 25.2847 43.7333 25.8001C43.7333 26.3156 43.3154 26.7335 42.8 26.7335H40.7737C40.0304 26.7315 39.3174 27.0269 38.7932 27.5539L35.6068 30.7403L35.2204 31.1267C34.6935 31.6505 34.3981 32.3633 34.4 33.1063V38.8668C34.4 39.3822 33.9821 39.8001 33.4667 39.8001C32.9512 39.8001 32.5333 39.3822 32.5333 38.8668V32.7861ZM28.7981 28.5964C28.7992 28.5964 28.8 28.5972 28.8 28.5983C28.8 28.5993 28.8008 28.6001 28.8019 28.6001H32.0622C32.1104 28.6001 32.1449 28.6628 32.1143 28.7C31.9479 28.9081 31.7945 29.1263 31.6551 29.3533C31.6224 29.4075 31.5832 29.456 31.5515 29.5111C31.3873 29.7979 31.245 30.0968 31.1259 30.4052C31.1122 30.441 31.0733 30.4631 31.0349 30.4631H28.8C28.2846 30.4631 27.8667 30.0452 27.8667 29.5297C27.8667 29.0149 28.2836 28.5974 28.7981 28.5964ZM26.9333 32.3335H30.2304C30.475 32.3335 30.6667 32.5415 30.6667 32.7861V33.7001C30.6667 33.9763 30.4428 34.2001 30.1667 34.2001H26.9333C26.4179 34.2001 26 33.7822 26 33.2668C26 32.7514 26.4179 32.3335 26.9333 32.3335ZM26.9333 36.0668H30.1667C30.4428 36.0668 30.6667 36.2906 30.6667 36.5668V38.8668C30.6667 40.4132 31.9202 41.6668 33.4667 41.6668C35.0131 41.6668 36.2667 40.4132 36.2667 38.8668V36.5668C36.2667 36.2906 36.4905 36.0668 36.7667 36.0668H51.5223C51.8207 36.0668 52.0538 36.3273 52.0008 36.621C51.2842 40.5921 47.8215 43.5285 43.7333 43.5335H10.2667C6.17847 43.5285 2.71579 40.5921 1.99922 36.621C1.94623 36.3273 2.17935 36.0668 2.47775 36.0668H26.9333Z" fill="#C72828"/>
</svg>
