<svg width="56" height="56" viewBox="0 0 56 56" fill="none" xmlns="http://www.w3.org/2000/svg">
<g clip-path="url(#clip0_1603_1957)">
<path d="M9.30593 50.528L54.6123 30.1792C55.4673 29.7953 55.999 28.9828 56 28.0588C56 28.058 56 28.0571 56 28.0563C56 27.1335 55.4702 26.3212 54.6168 25.9358L9.30823 5.47271C8.86953 5.27463 8.35262 5.39155 8.04189 5.75927C7.95909 5.85727 5.99067 8.20511 4.00957 12.1255C2.18049 15.7453 -7.02477e-07 21.448 -9.91484e-07 28.0597C-1.28056e-06 34.6729 2.18126 40.344 4.01099 43.9371C5.9933 47.8294 7.96336 50.1489 8.04637 50.2458C8.35721 50.6091 8.86996 50.7239 9.30593 50.528ZM15.7737 10.7566C15.1969 11.7989 14.6637 12.8692 14.183 13.9506C14.1197 14.0928 14.0898 14.2413 14.0898 14.3876C14.0898 14.8003 14.3284 15.1942 14.7298 15.3726C15.2734 15.6143 15.9101 15.3694 16.1517 14.8257C16.6308 13.748 17.1654 12.6826 17.7449 11.6468L53.7301 27.8992C53.7797 27.9217 53.8455 27.9621 53.8455 28.0563C53.8455 28.0563 53.8455 28.0564 53.8455 28.0565C53.8454 28.1508 53.7794 28.1914 53.7297 28.2137L14.2898 45.9276C12.0496 42.3647 8.82971 35.8826 8.82971 28.0595C8.82972 20.228 12.0553 13.6904 14.299 10.0904L15.7737 10.7566ZM2.15468 28.0597C2.15468 21.8971 4.19386 16.552 5.90449 13.1533C7.19795 10.5834 8.50509 8.70463 9.19306 7.78478L12.3186 9.19637C9.95037 13.06 6.67514 19.8833 6.67514 28.0597C6.67514 36.223 9.93997 42.9887 12.306 46.8188L9.18999 48.2182C7.51525 45.9999 2.15468 38.1123 2.15468 28.0597Z" fill="#C72828"/>
<path d="M15.0545 17.5843L15.0697 17.5415C15.267 16.9804 14.9729 16.3653 14.4118 16.1673C13.8507 15.9695 13.2355 16.2639 13.0375 16.8251L13.0217 16.8703C12.9802 16.9884 12.9606 17.1088 12.9606 17.2273C12.9606 17.6718 13.238 18.088 13.681 18.2437C14.2425 18.4408 14.8574 18.1456 15.0545 17.5843Z" fill="#C72828"/>
<path d="M24.7772 20.4592C24.7772 18.0831 22.8441 16.1501 20.4682 16.1501C18.0921 16.1501 16.1591 18.0831 16.1591 20.4592C16.1591 22.8352 18.0922 24.7682 20.4682 24.7682C22.8442 24.7682 24.7772 22.8351 24.7772 20.4592ZM18.3136 20.4592C18.3136 19.2712 19.2802 18.3046 20.4682 18.3046C21.6562 18.3046 22.6228 19.2712 22.6228 20.4592C22.6228 21.6472 21.6562 22.6138 20.4682 22.6138C19.2802 22.6136 18.3136 21.6472 18.3136 20.4592Z" fill="#C72828"/>
<path d="M35.5499 31.7705C35.5499 29.3944 33.6168 27.4614 31.2409 27.4614C28.8648 27.4614 26.9318 29.3945 26.9318 31.7705C26.9318 34.1464 28.8649 36.0795 31.2409 36.0795C33.6168 36.0795 35.5499 34.1464 35.5499 31.7705ZM29.0864 31.7705C29.0864 30.5824 30.0529 29.6159 31.241 29.6159C32.429 29.6159 33.3955 30.5823 33.3955 31.7705C33.3955 32.9585 32.429 33.925 31.241 33.925C30.0529 33.925 29.0864 32.9585 29.0864 31.7705Z" fill="#C72828"/>
<path d="M21.0068 34.4635C21.0068 32.6815 19.5571 31.2317 17.775 31.2317C15.993 31.2317 14.5432 32.6815 14.5432 34.4635C14.5432 36.2455 15.993 37.6953 17.775 37.6953C19.5571 37.6953 21.0068 36.2455 21.0068 34.4635ZM16.6977 34.4635C16.6977 33.8695 17.1809 33.3863 17.7749 33.3863C18.3689 33.3863 18.8522 33.8695 18.8522 34.4635C18.8522 35.0575 18.3689 35.5407 17.7749 35.5407C17.1809 35.5407 16.6977 35.0574 16.6977 34.4635Z" fill="#C72828"/>
<path d="M44.208 28.7816C44.6104 28.3432 44.5804 27.6616 44.1418 27.2597L43.4954 26.6672C43.0569 26.2652 42.3755 26.2948 41.9734 26.7334C41.7838 26.9401 41.6903 27.201 41.6903 27.4609C41.6903 27.7524 41.808 28.0429 42.0396 28.2553L42.686 28.8478C43.1245 29.2498 43.806 29.2201 44.208 28.7816Z" fill="#C72828"/>
<path d="M37.807 26.3915L38.8843 24.5601C39.1858 24.0473 39.0149 23.3871 38.502 23.0854C37.9891 22.7838 37.329 22.9549 37.0273 23.4677L35.9501 25.2991C35.8491 25.4707 35.8011 25.6587 35.8011 25.8443C35.8011 26.2134 35.9911 26.5731 36.3324 26.7738C36.8452 27.0754 37.5055 26.9042 37.807 26.3915Z" fill="#C72828"/>
<path d="M31.1266 25.0041C31.6735 24.7698 31.9269 24.1365 31.6924 23.5897L30.3997 20.5734C30.1653 20.0265 29.532 19.7732 28.9852 20.0076C28.5767 20.1827 28.3319 20.5804 28.3319 20.9982C28.3319 21.1397 28.36 21.2836 28.4194 21.422L29.7121 24.4383C29.9465 24.9853 30.5799 25.2385 31.1266 25.0041Z" fill="#C72828"/>
<path d="M23.9804 30.7051L25.8118 28.1736C26.1604 27.6914 26.0523 27.0179 25.5704 26.6693C25.0883 26.3207 24.4148 26.4287 24.066 26.9107L22.2347 29.4423C22.0966 29.6331 22.0302 29.8539 22.0302 30.073C22.0302 30.4068 22.185 30.7359 22.4763 30.9466C22.9581 31.2951 23.6316 31.1872 23.9804 30.7051Z" fill="#C72828"/>
<path d="M25.5602 39.7044C26.0747 39.4059 26.2501 38.7468 25.9516 38.232L24.3896 35.5389C24.091 35.0243 23.4318 34.849 22.9171 35.1475C22.5726 35.3473 22.3802 35.7088 22.3802 36.0804C22.3802 36.2637 22.4271 36.4497 22.5259 36.6199L24.0879 39.313C24.3863 39.8276 25.0456 40.0028 25.5602 39.7044Z" fill="#C72828"/>
<path d="M16.8087 29.3045C17.2319 28.8864 17.2356 28.2043 16.8175 27.7812L13.6934 24.6211C13.275 24.1981 12.5929 24.1942 12.1699 24.6124C11.9567 24.8231 11.85 25.1007 11.85 25.3785C11.85 25.6522 11.9536 25.9258 12.1612 26.1358L15.2853 29.2958C15.7036 29.719 16.3856 29.7228 16.8087 29.3045Z" fill="#C72828"/>
</g>
<defs>
<clipPath id="clip0_1603_1957">
<rect width="56" height="56" fill="white" transform="translate(56) rotate(90)"/>
</clipPath>
</defs>
</svg>
