<svg width="49" height="48" viewBox="0 0 49 48" fill="none" xmlns="http://www.w3.org/2000/svg">
<path fill-rule="evenodd" clip-rule="evenodd" d="M24.4364 12.5111C21.4102 12.5111 18.5485 12.0344 16.3785 11.1688C13.8866 10.1748 12.5141 8.72561 12.5142 7.08801C12.5142 5.45053 13.8867 4.00131 16.3786 3.00732C17.9312 2.38807 19.8388 1.96916 21.9065 1.78012C21.5742 1.34615 21.6048 0.721704 22.0006 0.324148C22.4307 -0.108049 23.128 -0.108049 23.5582 0.324148L25.2151 1.9893C25.6452 2.4215 25.6452 3.12231 25.2151 3.55451L23.5581 5.21955C23.3431 5.4357 23.0611 5.54372 22.7793 5.54372C22.4974 5.54372 22.2156 5.4357 22.0005 5.21955C21.6771 4.89449 21.597 4.41757 21.76 4.01725C20.0397 4.19876 18.4694 4.55481 17.1912 5.06471C15.3649 5.79319 14.7169 6.61 14.7169 7.08801C14.7169 7.56603 15.3649 8.38284 17.1912 9.11132C19.1088 9.87621 21.6818 10.2975 24.4364 10.2975C27.1909 10.2975 29.7639 9.87621 31.6815 9.11132C33.5079 8.38284 34.1558 7.56614 34.1558 7.08801C34.1558 6.31216 32.6506 5.16343 29.7739 4.46893C29.1825 4.32615 28.8182 3.7286 28.9603 3.13426C29.1023 2.53992 29.6972 2.1738 30.2885 2.31668C34.1462 3.24793 36.3587 4.98712 36.3587 7.08812C36.3587 8.72561 34.9862 10.1748 32.4942 11.1688C30.3242 12.0344 27.4625 12.5111 24.4364 12.5111ZM41.2706 17.5086C47.5538 19.5178 48.8727 22.0604 48.8727 23.8396C48.8727 23.8686 48.8723 23.8978 48.8716 23.9271C48.8481 30.1806 46.3029 36.0538 41.6973 40.4732C37.0842 44.8999 30.954 47.3378 24.4364 47.3378C17.9187 47.3378 11.7887 44.8999 7.1754 40.4732C2.56983 36.0538 0.0246717 30.1806 0.00110142 23.9271C0.000440567 23.8978 0 23.8686 0 23.8396C0 22.0604 1.31895 19.5178 7.6022 17.5085C12.1147 16.0655 18.0932 15.2709 24.4365 15.2709C28.6962 15.2709 32.7907 15.6298 36.3881 16.3022L39.1298 12.1168C39.4643 11.6062 40.1473 11.4648 40.6554 11.8009C41.1635 12.137 41.3042 12.8233 40.9697 13.3339L38.7025 16.7949C39.6013 17.0114 40.46 17.2494 41.2706 17.5086ZM46.6699 23.8396C46.6699 22.4323 44.3451 20.8147 40.6026 19.618C39.611 19.3009 38.542 19.017 37.4105 18.7673L32.8854 25.6749C36.2688 26.0883 39.3564 26.7477 41.8815 27.615C44.8669 26.4807 46.6699 25.0786 46.6699 23.8396ZM10.9362 28.7923C14.8204 29.7026 19.5043 30.1946 24.4364 30.1946C25.4103 30.1946 26.3745 30.1752 27.3248 30.1374L29.0286 27.5366C27.5298 27.4388 25.992 27.388 24.436 27.388C19.5352 27.388 14.8119 27.8882 10.9362 28.7923ZM37.9366 28.7923C35.9867 28.3374 33.8219 27.9851 31.5279 27.7471L30.0693 29.9738C32.9057 29.7465 35.5696 29.347 37.9366 28.7923ZM24.4363 17.4846C18.3136 17.4846 12.5723 18.2423 8.26999 19.618C4.52759 20.8146 2.20283 22.4323 2.20283 23.8396C2.20283 25.0787 4.00596 26.4808 6.99135 27.615C11.5133 26.0618 17.8382 25.1743 24.4359 25.1743C26.4697 25.1743 28.4769 25.2594 30.4141 25.4214L35.0694 18.3149C31.8345 17.7724 28.2081 17.4846 24.4363 17.4846ZM2.60441 27.8731C4.57892 37.6873 13.617 45.1243 24.4364 45.1243C35.2557 45.1243 44.2938 37.6874 46.2683 27.8731C45.1247 28.6677 43.5143 29.4532 41.2706 30.1706C36.7582 31.6135 30.7796 32.4082 24.4364 32.4082C18.0931 32.4082 12.1146 31.6135 7.60209 30.1706C5.35839 29.4531 3.74801 28.6676 2.60441 27.8731Z" fill="#FFB84D"/>
</svg>
