<svg width="313" height="427" viewBox="0 0 313 427" fill="none" xmlns="http://www.w3.org/2000/svg">
<path opacity="0.1" fill-rule="evenodd" clip-rule="evenodd" d="M63.7743 72.3899C32.9666 72.3899 3.8331 67.5362 -18.2587 58.7224C-43.628 48.6014 -57.6005 33.8452 -57.5994 17.1711C-57.5994 0.498028 -43.6269 -14.2581 -18.2576 -24.3791C-2.45177 -30.6843 16.9691 -34.9498 38.0192 -36.8746C34.6362 -41.2933 34.948 -47.6515 38.9768 -51.6995C43.3554 -56.1002 50.4544 -56.1002 54.8342 -51.6995L71.7018 -34.7447C76.0805 -30.344 76.0805 -23.2082 71.7018 -18.8075L54.833 -1.8539C52.6443 0.347008 49.7737 1.4469 46.9043 1.4469C44.0349 1.4469 41.1655 0.347008 38.9756 -1.8539C35.6835 -5.16372 34.8683 -10.0197 36.5279 -14.0958C19.0143 -12.2476 3.028 -8.62229 -9.98463 -3.43048C-28.578 3.98702 -35.1746 12.3038 -35.1746 17.1711C-35.1746 22.0383 -28.578 30.3551 -9.98463 37.7726C9.53712 45.5609 35.7318 49.85 63.7743 49.85C91.8167 49.85 118.011 45.5609 137.533 37.7726C156.126 30.3551 162.723 22.0394 162.723 17.1711C162.723 9.27124 147.399 -2.42525 118.113 -9.49679C112.092 -10.9505 108.384 -17.0349 109.83 -23.0865C111.276 -29.1382 117.332 -32.8661 123.352 -31.4112C162.625 -21.9292 185.149 -4.22046 185.149 17.1722C185.149 33.8452 171.177 48.6014 145.807 58.7224C123.715 67.5362 94.5819 72.3899 63.7743 72.3899ZM235.155 123.274C299.121 143.733 312.548 169.622 312.548 187.738C312.548 188.033 312.544 188.33 312.537 188.629C312.297 252.303 286.386 312.104 239.499 357.103C192.535 402.177 130.127 427 63.7742 427C-2.57852 427 -64.9854 402.177 -111.951 357.103C-158.838 312.104 -184.749 252.303 -184.989 188.629C-184.996 188.33 -185 188.033 -185 187.738C-185 169.622 -171.572 143.733 -107.606 123.273C-61.6664 108.581 -0.802399 100.49 63.7753 100.49C107.141 100.49 148.826 104.145 185.448 110.991L213.361 68.3745C216.766 63.176 223.719 61.7357 228.892 65.1582C234.064 68.5808 235.497 75.5689 232.092 80.7675L209.01 116.008C218.161 118.212 226.903 120.635 235.155 123.274ZM290.122 187.738C290.122 173.409 266.455 156.938 228.355 144.753C218.26 141.524 207.376 138.633 195.857 136.091L149.79 206.426C184.234 210.635 215.667 217.349 241.374 226.18C271.767 214.63 290.122 200.354 290.122 187.738ZM-73.6642 238.167C-34.1206 247.436 13.5637 252.445 63.7742 252.445C73.6898 252.445 83.5056 252.248 93.1802 251.863L110.526 225.381C95.2669 224.386 79.6114 223.868 63.7708 223.868C13.8776 223.868 -34.2081 228.961 -73.6642 238.167ZM201.214 238.167C181.362 233.535 159.323 229.948 135.97 227.524L121.121 250.197C149.996 247.882 177.116 243.815 201.214 238.167ZM63.7731 123.03C1.44131 123.03 -57.0074 130.745 -100.807 144.753C-138.907 156.937 -162.574 173.409 -162.574 187.738C-162.574 200.355 -144.217 214.631 -113.825 226.18C-67.7886 210.364 -3.39821 201.328 63.7697 201.328C84.4744 201.328 104.909 202.194 124.63 203.844L172.024 131.484C139.091 125.961 102.172 123.03 63.7731 123.03ZM-158.486 228.808C-138.384 328.737 -46.3719 404.461 63.7742 404.461C173.92 404.461 265.933 328.738 286.034 228.808C274.392 236.898 257.997 244.896 235.155 252.201C189.217 266.893 128.352 274.984 63.7742 274.984C-0.803513 274.984 -61.6675 266.893 -107.607 252.201C-130.449 244.895 -146.843 236.897 -158.486 228.808Z" fill="#FFB84D"/>
</svg>
